<svg width="79" height="78" viewBox="0 0 79 78" fill="none" xmlns="http://www.w3.org/2000/svg">
<path d="M69.7309 0H8.36771C3.74804 0 0 3.7433 0 8.35714V69.6429C0 74.2567 3.74804 78 8.36771 78H69.7309C74.3506 78 78.0986 74.2567 78.0986 69.6429V8.35714C78.0986 3.7433 74.3506 0 69.7309 0ZM48.3409 66.8049C46.8766 67.0661 46.3362 66.1607 46.3362 65.4121C46.3362 64.4719 46.371 59.6665 46.371 55.7839C46.371 53.0679 45.4645 51.3442 44.4012 50.4388C50.8513 49.725 57.65 48.8371 57.65 37.7116C57.65 34.5429 56.5169 32.9585 54.669 30.9214C54.9654 30.1728 55.959 27.0911 54.3727 23.0866C51.9495 22.3379 46.4059 26.2031 46.4059 26.2031C44.1048 25.5589 41.6119 25.2281 39.1539 25.2281C36.6959 25.2281 34.203 25.5589 31.9019 26.2031C31.9019 26.2031 26.3583 22.3379 23.9351 23.0866C22.3488 27.0737 23.325 30.1554 23.6388 30.9214C21.7909 32.9585 20.9193 34.5429 20.9193 37.7116C20.9193 48.7848 27.4217 49.725 33.8718 50.4388C33.035 51.1875 32.2854 52.4759 32.0239 54.3214C30.3678 55.0701 26.1317 56.3585 23.6039 51.9013C22.0175 49.1504 19.1586 48.9241 19.1586 48.9241C16.3345 48.8893 18.9668 50.7 18.9668 50.7C20.8495 51.5705 22.1744 54.9134 22.1744 54.9134C23.8654 60.0844 31.9542 58.3433 31.9542 58.3433C31.9542 60.7634 31.9891 64.6982 31.9891 65.4121C31.9891 66.1607 31.4661 67.0661 29.9843 66.8049C18.4787 62.9571 10.4248 52.0232 10.4248 39.2438C10.4248 23.2607 22.6625 11.1254 38.6658 11.1254C54.669 11.1254 67.639 23.2607 67.639 39.2438C67.6564 52.0232 59.8465 62.9746 48.3409 66.8049ZM31.2394 56.167C30.9082 56.2366 30.5944 56.0973 30.5596 55.871C30.5247 55.6098 30.7513 55.3835 31.0825 55.3138C31.4138 55.279 31.7276 55.4183 31.7624 55.6446C31.8147 55.871 31.5881 56.0973 31.2394 56.167ZM29.5833 56.0103C29.5833 56.2366 29.3218 56.4281 28.9732 56.4281C28.5897 56.4629 28.3282 56.2714 28.3282 56.0103C28.3282 55.7839 28.5897 55.5924 28.9383 55.5924C29.2695 55.5576 29.5833 55.7491 29.5833 56.0103ZM27.1951 55.8188C27.1253 56.0451 26.7767 56.1496 26.4803 56.0451C26.1491 55.9754 25.9225 55.7143 25.9922 55.488C26.0619 55.2616 26.4106 55.1571 26.7069 55.2268C27.0556 55.3313 27.2822 55.5924 27.1951 55.8188ZM25.0508 54.8786C24.8939 55.0701 24.5627 55.0353 24.3012 54.7741C24.0397 54.5478 23.97 54.217 24.1443 54.0603C24.3012 53.8688 24.6324 53.9036 24.8939 54.1647C25.1206 54.3911 25.2077 54.7393 25.0508 54.8786ZM23.4644 53.2942C23.3076 53.3987 23.0112 53.2942 22.8194 53.033C22.6277 52.7719 22.6277 52.4759 22.8194 52.354C23.0112 52.1973 23.3076 52.3192 23.4644 52.5804C23.6562 52.8415 23.6562 53.1549 23.4644 53.2942V53.2942ZM22.3313 51.6054C22.1744 51.7621 21.9129 51.675 21.7212 51.5009C21.5294 51.2746 21.4945 51.0134 21.6514 50.8915C21.8083 50.7348 22.0698 50.8219 22.2616 50.996C22.4533 51.2223 22.4882 51.4835 22.3313 51.6054ZM21.1633 50.317C21.0936 50.4737 20.867 50.5085 20.6752 50.3866C20.4486 50.2821 20.344 50.0906 20.4137 49.9339C20.4835 49.8295 20.6752 49.7772 20.9018 49.8643C21.1285 49.9862 21.2331 50.1777 21.1633 50.317Z" fill="white"/>
</svg>
