<svg width="78" height="78" viewBox="0 0 78 78" fill="none" xmlns="http://www.w3.org/2000/svg">
<path d="M69.6429 0H8.35714C3.7433 0 0 3.7433 0 8.35714V69.6429C0 74.2567 3.7433 78 8.35714 78H69.6429C74.2567 78 78 74.2567 78 69.6429V8.35714C78 3.7433 74.2567 0 69.6429 0ZM48.2799 66.8049C46.8174 67.0661 46.2777 66.1607 46.2777 65.4121C46.2777 64.4719 46.3125 59.6665 46.3125 55.7839C46.3125 53.0679 45.4071 51.3442 44.3451 50.4388C50.7871 49.725 57.5772 48.8371 57.5772 37.7116C57.5772 34.5429 56.4455 32.9585 54.6 30.9214C54.896 30.1728 55.8884 27.0911 54.304 23.0866C51.8839 22.3379 46.3473 26.2031 46.3473 26.2031C44.0491 25.5589 41.5594 25.2281 39.1045 25.2281C36.6496 25.2281 34.1598 25.5589 31.8616 26.2031C31.8616 26.2031 26.325 22.3379 23.9049 23.0866C22.3205 27.0737 23.2955 30.1554 23.6089 30.9214C21.7634 32.9585 20.8929 34.5429 20.8929 37.7116C20.8929 48.7848 27.3871 49.725 33.829 50.4388C32.9933 51.1875 32.2446 52.4759 31.9835 54.3214C30.3295 55.0701 26.0987 56.3585 23.5741 51.9013C21.9897 49.1504 19.1344 48.9241 19.1344 48.9241C16.3138 48.8893 18.9429 50.7 18.9429 50.7C20.8232 51.5705 22.1464 54.9134 22.1464 54.9134C23.8353 60.0844 31.9138 58.3433 31.9138 58.3433C31.9138 60.7634 31.9487 64.6982 31.9487 65.4121C31.9487 66.1607 31.4263 67.0661 29.9464 66.8049C18.4554 62.9571 10.4116 52.0232 10.4116 39.2438C10.4116 23.2607 22.6339 11.1254 38.617 11.1254C54.6 11.1254 67.5536 23.2607 67.5536 39.2438C67.571 52.0232 59.771 62.9746 48.2799 66.8049ZM31.2 56.167C30.8692 56.2366 30.5558 56.0973 30.521 55.871C30.4862 55.6098 30.7125 55.3835 31.0433 55.3138C31.3741 55.279 31.6875 55.4183 31.7223 55.6446C31.7746 55.871 31.5482 56.0973 31.2 56.167ZM29.546 56.0103C29.546 56.2366 29.2848 56.4281 28.9366 56.4281C28.5536 56.4629 28.2924 56.2714 28.2924 56.0103C28.2924 55.7839 28.5536 55.5924 28.9018 55.5924C29.2326 55.5576 29.546 55.7491 29.546 56.0103ZM27.1607 55.8188C27.0911 56.0451 26.7429 56.1496 26.4469 56.0451C26.1161 55.9754 25.8897 55.7143 25.9594 55.488C26.029 55.2616 26.3772 55.1571 26.6732 55.2268C27.0214 55.3313 27.2478 55.5924 27.1607 55.8188ZM25.0192 54.8786C24.8625 55.0701 24.5317 55.0353 24.2705 54.7741C24.0094 54.5478 23.9397 54.217 24.1138 54.0603C24.2705 53.8688 24.6013 53.9036 24.8625 54.1647C25.0888 54.3911 25.1759 54.7393 25.0192 54.8786ZM23.4348 53.2942C23.2781 53.3987 22.9821 53.2942 22.7906 53.033C22.5991 52.7719 22.5991 52.4759 22.7906 52.354C22.9821 52.1973 23.2781 52.3192 23.4348 52.5804C23.6263 52.8415 23.6263 53.1549 23.4348 53.2942V53.2942ZM22.3031 51.6054C22.1464 51.7621 21.8853 51.675 21.6938 51.5009C21.5022 51.2746 21.4674 51.0134 21.6241 50.8915C21.7808 50.7348 22.042 50.8219 22.2335 50.996C22.425 51.2223 22.4598 51.4835 22.3031 51.6054ZM21.1366 50.317C21.067 50.4737 20.8406 50.5085 20.6491 50.3866C20.4228 50.2821 20.3183 50.0906 20.3879 49.9339C20.4576 49.8295 20.6491 49.7772 20.8754 49.8643C21.1018 49.9862 21.2063 50.1777 21.1366 50.317Z" fill="white"/>
</svg>
