<svg width="78" height="78" viewBox="0 0 78 78" fill="none" xmlns="http://www.w3.org/2000/svg">
<path fill-rule="evenodd" clip-rule="evenodd" d="M9.56129 0C4.28074 0 0 4.28074 0 9.5613V68.4387C0 73.7193 4.28074 78 9.5613 78H68.4387C73.7193 78 78 73.7193 78 68.4387V9.56129C78 4.28074 73.7193 0 68.4387 0H9.56129ZM11.6533 49.5179C5.84458 43.7089 5.84458 34.2909 11.6533 28.4819L28.482 11.6532C34.291 5.84448 43.709 5.84448 49.518 11.6532L66.3467 28.4819C72.1554 34.2909 72.1554 43.7089 66.3467 49.5179L49.518 66.3466C43.709 72.1553 34.291 72.1553 28.482 66.3466L11.6533 49.5179ZM46.3625 31.6374C50.4288 35.7035 50.4288 42.2963 46.3625 46.3624C42.2964 50.4287 35.7036 50.4287 31.6375 46.3624C27.5712 42.2963 27.5712 35.7035 31.6375 31.6374C35.7036 27.5711 42.2964 27.5711 46.3625 31.6374Z" fill="white"/>
</svg>
