<svg width="78" height="78" viewBox="0 0 78 78" fill="none" xmlns="http://www.w3.org/2000/svg">
<path fill-rule="evenodd" clip-rule="evenodd" d="M68.4703 0C73.73 0 78 4.2702 78 9.52971V68.4703C78 73.7298 73.7298 78 68.4703 78H9.52971C4.2702 78 0 73.7298 0 68.4703V9.52971C0 4.2702 4.27004 0 9.52971 0H68.4703V0ZM24.4452 64.4838V30.0972H13.0134V64.4838H24.4452ZM65.6602 64.4838V44.7645C65.6602 34.2021 60.0207 29.2885 52.5005 29.2885C46.4367 29.2885 43.7204 32.6235 42.1995 34.9658V30.0972H30.7705C30.9221 33.324 30.7705 64.4838 30.7705 64.4838H42.1994V45.2799C42.1994 44.2519 42.2734 43.2245 42.5763 42.4897C43.4011 40.4369 45.283 38.3103 48.4406 38.3103C52.5744 38.3103 54.2307 41.4649 54.2307 46.0855V64.4838H65.6602V64.4838ZM18.8065 13.5162C14.8953 13.5162 12.3398 16.0877 12.3398 19.458C12.3398 22.7574 14.8176 25.3997 18.6553 25.3997H18.729C22.7151 25.3997 25.1963 22.7574 25.1963 19.458C25.1224 16.0924 22.7221 13.5236 18.8065 13.5162V13.5162Z" fill="white"/>
</svg>
